<svg xmlns="http://www.w3.org/2000/svg" viewBox="0 0 574.94 449.35"><defs><style>.cls-1{fill:#ffe0d2;}.cls-2{fill:#9d6cff;}</style></defs><g id="Laag_2" data-name="Laag 2"><g id="Layer_1" data-name="Layer 1"><path class="cls-1" d="M331.35,5a12.84,12.84,0,0,1,20.31,0C386.12,49,498.49,192,539.08,235.72c33.14,35.71,44,78.61,29.73,126.55s-46.3,76.67-92.65,85.15c-37.36,6.83-70.67-4.59-98.47-32.22-9.22-9.16-17.86-19-26.73-29a12.93,12.93,0,0,0-19.18-.14c-8.17,8.89-16,17.46-24,25.89-57.8,61-152.52,44.63-188.38-32.52-21.53-46.32-13.84-103.24,20.55-140.29C195,179.83,298.7,47.11,331.35,5Z"/><path class="cls-2" d="M176.85,85.12h0A18.9,18.9,0,0,1,158,104H66q-14.74,0-21.47,7.21T37.8,129.65a31.42,31.42,0,0,0,1.45,9.45,20,20,0,0,0,5.12,8.33,24.87,24.87,0,0,0,9.77,5.77q6.09,2.09,15.71,2.09h50.61q22.11,0,36.21,5.6t22.27,14.58A48.42,48.42,0,0,1,190.15,196a89.92,89.92,0,0,1,3,23.06,79.8,79.8,0,0,1-3.84,25.32,51.46,51.46,0,0,1-12.18,20,57.05,57.05,0,0,1-21.3,13.29q-13,4.81-31.56,4.81H22.74a18.91,18.91,0,0,1,0-37.81H125.59q15.38,0,22.59-7.52t7.21-19.39a32.6,32.6,0,0,0-1.61-10.09,20.53,20.53,0,0,0-5.44-8.65,27.85,27.85,0,0,0-10.41-5.93,51.94,51.94,0,0,0-16.5-2.24H71.12q-21.79,0-35.56-5.45T13.93,171A50.33,50.33,0,0,1,3,150.8a85.27,85.27,0,0,1-3-22.43,80.4,80.4,0,0,1,3.68-24.83,49.59,49.59,0,0,1,11.86-19.7,55.18,55.18,0,0,1,21-13q12.81-4.64,30.76-4.65H158A18.91,18.91,0,0,1,176.85,85.12Z"/><path class="cls-2" d="M226.58,259.49h0A23.17,23.17,0,0,1,207,224l75.72-119.88a20.72,20.72,0,0,0,1.62-3.14Q292.19,82.19,306,74.37q14.43-8.16,37-8.16,22.16,0,36.58,8.16,13.83,7.81,21.31,26.56a22.07,22.07,0,0,0,1.56,3.16l73,120.21a23.16,23.16,0,0,1-19.79,35.19h-1a23.14,23.14,0,0,1-19.46-10.62L356.41,126.43q-3.77-9.63-13.8-9.62t-14.22,9.62L245.8,249.25A23.16,23.16,0,0,1,226.58,259.49Z"/><path class="cls-2" d="M196.79,280.74A80.11,80.11,0,0,0,317.36,384l23.79-21.16L364.94,384A80.11,80.11,0,0,0,485.41,280.59a19.36,19.36,0,0,0-32.48,21.06,41.4,41.4,0,0,1-62.26,53.43L354,322.47a19.37,19.37,0,0,0-25.73,0l-36.66,32.61a41.4,41.4,0,0,1-62.31-53.35,19.36,19.36,0,0,0-32.53-21Z"/><path class="cls-2" d="M360.94,219h77.54a19.36,19.36,0,0,0,0-38.71H360.94a19.36,19.36,0,1,0,0,38.71"/></g></g></svg>