<?xml version="1.0" standalone="no"?>
<svg viewBox="0 0 200 200" xmlns="http://www.w3.org/2000/svg">
  <path fill="#FFFFFF" d="M41.4,-70.6C51.1,-66.1,54.7,-49.8,58.6,-36.1C62.6,-22.4,67,-11.2,66.6,-0.2C66.2,10.8,61.1,21.5,57.2,35.4C53.3,49.3,50.7,66.4,41.4,72.4C32.1,78.4,16.1,73.3,0,73.3C-16,73.2,-32,78.2,-46.2,75C-60.3,71.8,-72.6,60.4,-80.3,46.5C-87.9,32.7,-90.8,16.3,-84.4,3.7C-78,-8.9,-62.2,-17.8,-52.7,-28.5C-43.2,-39.1,-40,-51.4,-32.2,-57C-24.5,-62.7,-12.3,-61.7,1.8,-64.8C15.8,-67.9,31.7,-75.1,41.4,-70.6Z" transform="translate(100 100)" />
</svg>
