<?xml version="1.0" encoding="UTF-8" standalone="no"?>
<svg
   xmlns:dc="http://purl.org/dc/elements/1.1/"
   xmlns:cc="http://creativecommons.org/ns#"
   xmlns:rdf="http://www.w3.org/1999/02/22-rdf-syntax-ns#"
   xmlns:svg="http://www.w3.org/2000/svg"
   xmlns="http://www.w3.org/2000/svg"
   xmlns:sodipodi="http://sodipodi.sourceforge.net/DTD/sodipodi-0.dtd"
   xmlns:inkscape="http://www.inkscape.org/namespaces/inkscape"
   version="1.1"
   id="Layer_1"
   x="0px"
   y="0px"
   viewBox="0 0 1133.86 1133.86"
   style="enable-background:new 0 0 1133.86 1133.86;"
   xml:space="preserve"
   sodipodi:docname="logo.svg"
   inkscape:version="1.0.2-2 (e86c870879, 2021-01-15)"><metadata
   id="metadata873"><rdf:RDF><cc:Work
       rdf:about=""><dc:format>image/svg+xml</dc:format><dc:type
         rdf:resource="http://purl.org/dc/dcmitype/StillImage" /><dc:title></dc:title></cc:Work></rdf:RDF></metadata><defs
   id="defs871">
	
	

		
	
		
	</defs><sodipodi:namedview
   pagecolor="#ffffff"
   bordercolor="#666666"
   borderopacity="1"
   objecttolerance="10"
   gridtolerance="10"
   guidetolerance="10"
   inkscape:pageopacity="0"
   inkscape:pageshadow="2"
   inkscape:window-width="1920"
   inkscape:window-height="991"
   id="namedview869"
   showgrid="false"
   inkscape:zoom="0.51137491"
   inkscape:cx="1044.019"
   inkscape:cy="515.61748"
   inkscape:window-x="-9"
   inkscape:window-y="-9"
   inkscape:window-maximized="1"
   inkscape:current-layer="Layer_1" />
<style
   type="text/css"
   id="style854">
	.st0{fill:#FFE0D2;}
	.st1{fill:#2133EB;}
</style>

<ellipse
   style="opacity:1;fill:#ffe0d2;fill-opacity:1;stroke-width:51.2373"
   id="path934"
   cx="566.96484"
   cy="569.85175"
   rx="567.18378"
   ry="560.21826" /><g
   id="g912"
   transform="matrix(0.94365239,0,0,0.94365239,42.731372,58.694217)"><g
     id="g916"
     transform="matrix(1.1870895,0,0,1.1870895,-117.35732,-97.383488)"><path
       class="st1"
       d="m 408.10781,625.67205 c -2.4751,-41.60644 6.54886,-76.83449 27.10303,-105.66594 20.54418,-28.83087 62.01655,-60.84013 124.41532,-96.05773 43.06413,-23.43866 70.40082,-42.32533 82.00127,-56.63947 11.60104,-14.30415 16.83915,-30.99466 15.70611,-50.04099 -1.40501,-23.61825 -10.95993,-42.61437 -28.66297,-56.95841 -17.70304,-14.34405 -39.45146,-20.74385 -65.24586,-19.20938 -28.97877,1.7239 -72.1697,25.22019 -72.1697,25.22019 0,0 -106.32306,58.84768 -104.35153,91.98909 v 0 c -0.12589,-2.11626 8.68578,-120.22797 40.38343,-155.56264 31.69765,-35.33467 75.58719,-54.66509 131.65807,-58.00066 57.47838,-3.4193 104.2185,10.34941 140.21976,41.29615 35.99186,30.95731 55.63949,74.11673 58.93289,129.47886 2.41275,40.5583 -5.69196,74.39931 -24.27419,101.52064 -18.59222,27.12194 -56.78995,56.92284 -114.60496,89.37336 -2.74127,1.57557 -6.84789,3.94361 -12.31987,7.10413 m -89.91312,380.67114 c -1.13304,-19.04633 4.77448,-35.76664 17.72255,-50.16095 12.94866,-14.38432 28.76558,-22.14728 47.46253,-23.25953 19.74509,-1.1746 36.6344,4.54254 50.65853,17.16201 14.02414,12.61947 21.60813,28.62736 22.76195,48.02307 1.13303,19.04633 -4.60419,35.76653 -17.19349,50.12947 -12.59928,14.36354 -28.59588,22.13719 -47.99159,23.29101 -19.04633,1.13303 -35.76189,-4.69462 -50.14491,-17.45303 -14.38362,-12.76838 -22.14254,-28.68572 -23.27557,-47.73205 z"
       id="path858" /><path
       class="st1"
       d="m 725.51788,427.80397 c -20.54418,28.83086 -68.93873,58.14643 -131.3375,93.36403 -43.06413,23.43866 -70.40082,42.32534 -82.00127,56.63947 -11.60104,14.30416 -16.83915,30.99467 -15.70611,50.041 1.40501,23.61824 10.95992,42.61436 28.66296,56.95841 17.70304,14.34405 39.45147,20.74384 65.24587,19.20938 28.97876,-1.7239 72.1697,-25.22019 72.1697,-25.22019 0,0 106.32305,-58.84768 104.35152,-91.98909 v 0 c 0.1259,2.11626 -8.68578,120.22796 -40.38342,155.56263 -31.69765,35.33467 -75.58719,54.6651 -131.65807,58.00067 -57.47838,3.41929 -104.2185,-10.34942 -140.21976,-41.29615 -35.99187,-30.95732 -55.63949,-74.11674 -58.9329,-129.47887 -2.41274,-40.55829 5.69196,-74.3993 24.2742,-101.52064 18.59222,-27.12193 56.78995,-56.92283 114.60495,-89.37335 2.74128,-1.57557 6.8479,-3.94362 12.31988,-7.10414"
       id="path862" /></g></g>
</svg>
