<?xml version="1.0" encoding="UTF-8" standalone="no"?>
<svg
   xmlns:dc="http://purl.org/dc/elements/1.1/"
   xmlns:cc="http://creativecommons.org/ns#"
   xmlns:rdf="http://www.w3.org/1999/02/22-rdf-syntax-ns#"
   xmlns:svg="http://www.w3.org/2000/svg"
   xmlns="http://www.w3.org/2000/svg"
   xmlns:sodipodi="http://sodipodi.sourceforge.net/DTD/sodipodi-0.dtd"
   xmlns:inkscape="http://www.inkscape.org/namespaces/inkscape"
   version="1.1"
   id="svg2"
   xml:space="preserve"
   width="459.30399"
   height="459.30264"
   viewBox="0 0 459.30398 459.30263"
   sodipodi:docname="Sociaal antwoord logo.svg"
   inkscape:version="1.0.2-2 (e86c870879, 2021-01-15)"><metadata
     id="metadata8"><rdf:RDF><cc:Work
         rdf:about=""><dc:format>image/svg+xml</dc:format><dc:type
           rdf:resource="http://purl.org/dc/dcmitype/StillImage" /><dc:title></dc:title></cc:Work></rdf:RDF></metadata><defs
     id="defs6"><clipPath
       clipPathUnits="userSpaceOnUse"
       id="clipPath18"><path
         d="M 0,2000 H 2000 V 0 H 0 Z"
         id="path16" /></clipPath></defs><sodipodi:namedview
     pagecolor="#ffffff"
     bordercolor="#666666"
     borderopacity="1"
     objecttolerance="10"
     gridtolerance="10"
     guidetolerance="10"
     inkscape:pageopacity="0"
     inkscape:pageshadow="2"
     inkscape:window-width="1920"
     inkscape:window-height="991"
     id="namedview4"
     inkscape:document-rotation="0"
     showgrid="false"
     inkscape:zoom="0.29688392"
     inkscape:cx="1078.712"
     inkscape:cy="229.65197"
     inkscape:window-x="-9"
     inkscape:window-y="-9"
     inkscape:window-maximized="1"
     inkscape:current-layer="g12"
     fit-margin-top="0"
     fit-margin-left="0"
     fit-margin-right="0"
     fit-margin-bottom="0" /><g
     id="g10"
     inkscape:groupmode="layer"
     inkscape:label="Sociaal antwoord logo"
     transform="matrix(1.3333333,0,0,-1.3333333,-254.62133,1562.9853)"><g
       id="g12"><g
         id="g20"
         transform="translate(535.444,1000)"><path
           d="m 0,0 c 0,-95.125 -77.114,-172.238 -172.239,-172.238 -95.125,0 -172.239,77.113 -172.239,172.238 0,95.125 77.114,172.239 172.239,172.239 C -77.114,172.239 0,95.125 0,0"
           style="fill:#ffe0d2;fill-opacity:1;fill-rule:nonzero;stroke:none"
           id="path22" /></g><g
         id="g24"
         transform="translate(323.2281,927.2139)"><path
           d="m 0,0 c -3.568,3.211 -7.866,4.665 -12.89,4.366 -4.757,-0.282 -8.782,-2.258 -12.077,-5.918 -3.294,-3.662 -4.798,-7.917 -4.509,-12.763 0.288,-4.846 2.262,-8.896 5.922,-12.145 3.66,-3.247 7.913,-4.729 12.76,-4.441 4.935,0.294 9.005,2.271 12.211,5.926 3.203,3.655 4.663,7.91 4.375,12.755 C 5.498,-7.284 3.568,-3.211 0,0"
           style="fill:#2133eb;fill-opacity:1;fill-rule:nonzero;stroke:none"
           id="path26" /></g><g
         id="g28"
         transform="translate(260.7096,1050.1743)"><path
           d="M 0,0 C -0.038,-0.241 -0.049,-0.475 -0.048,-0.707 -0.04,-0.55 -0.024,-0.32 0,0"
           style="fill:#2133eb;fill-opacity:1;fill-rule:nonzero;stroke:none"
           id="path30" /></g><g
         id="g32"
         transform="translate(260.6617,1049.4673)"><path
           d="M 0,0 C -0.006,-0.11 -0.01,-0.194 -0.009,-0.215 -0.013,-0.145 0,-0.071 0,0"
           style="fill:#2133eb;fill-opacity:1;fill-rule:nonzero;stroke:none"
           id="path34" /></g><g
         id="g36"
         transform="translate(381.6779,1004.8447)"><path
           d="m 0,0 21.676,67.324 h 2.206 0.231 2.222 L 47.501,0 Z m 41.72,93.809 c -0.431,1.223 -1.588,2.043 -2.885,2.042 H 10.068 c -1.292,0 -2.445,-0.813 -2.88,-2.03 L -31.29,-13.985 c -3.506,-9.824 -10.447,-18.056 -19.558,-23.132 -0.026,-0.015 -0.039,-0.023 -0.039,-0.023 0,0 -10.99,-5.978 -18.363,-6.417 -6.564,-0.39 -12.098,1.239 -16.602,4.888 -4.504,3.649 -6.936,8.483 -7.293,14.493 -0.289,4.846 1.044,9.093 3.996,12.733 2.952,3.642 9.908,8.448 20.865,14.412 15.873,8.958 28.185,16.416 33.414,23.751 0.79,0.926 1.499,1.841 2.118,2.743 4.728,6.901 6.79,15.512 6.176,25.832 -0.838,14.086 -5.837,25.068 -14.995,32.945 -9.16,7.874 -21.053,11.378 -35.679,10.508 -14.267,-0.849 -25.434,-5.768 -33.5,-14.758 -7.294,-8.132 -9.825,-33.49 -10.218,-38.66 1.333,8.555 26.495,22.484 26.495,22.484 0,0 10.99,5.978 18.364,6.417 6.563,0.39 12.096,-1.238 16.601,-4.888 4.505,-3.65 6.936,-8.483 7.293,-14.493 0.289,-4.846 -1.044,-9.093 -3.996,-12.732 -2.952,-3.643 -9.908,-8.449 -20.865,-14.412 -2.44,-1.377 -4.738,-2.733 -6.927,-4.071 -14.394,-8.134 -23.935,-15.612 -28.605,-22.424 -4.728,-6.901 -6.79,-15.512 -6.176,-25.831 0.838,-14.087 5.837,-25.068 14.995,-32.946 9.16,-7.874 21.055,-11.412 35.678,-10.507 48.213,2.978 61.749,47.67 61.749,47.67 h 61.259 l 9.085,-29.634 -2.894,-0.888 2.894,0.888 c 0.393,-1.284 1.581,-2.162 2.924,-2.162 h 26.268 z"
           style="fill:#2133eb;fill-opacity:1;fill-rule:nonzero;stroke:none"
           id="path38" /></g><g
         id="g40"
         transform="translate(628.4259,1031.2749)"><path
           d="m 0,0 -12.112,-10.689 c -4.253,5.919 -8.581,8.879 -12.99,8.879 -2.146,0 -3.899,-0.575 -5.265,-1.725 -1.365,-1.149 -2.048,-2.442 -2.048,-3.883 0,-1.439 0.489,-2.802 1.464,-4.088 1.324,-1.715 5.323,-5.392 11.992,-11.039 6.24,-5.218 10.022,-8.508 11.35,-9.87 3.316,-3.347 5.665,-6.551 7.05,-9.607 1.385,-3.055 2.077,-6.395 2.077,-10.016 0,-7.047 -2.436,-12.869 -7.31,-17.461 -4.872,-4.595 -11.224,-6.891 -19.059,-6.891 -6.119,0 -11.448,1.499 -15.989,4.497 -4.542,2.998 -8.429,7.708 -11.665,14.132 l 13.745,8.292 c 4.135,-7.59 8.892,-11.388 14.272,-11.388 2.807,0 5.167,0.819 7.078,2.455 1.912,1.635 2.868,3.522 2.868,5.665 0,1.944 -0.724,3.891 -2.166,5.84 -1.445,1.944 -4.621,4.923 -9.537,8.934 -9.359,7.631 -15.405,13.523 -18.136,17.667 -2.732,4.147 -4.094,8.282 -4.094,12.411 0,5.957 2.271,11.067 6.812,15.332 4.541,4.262 10.143,6.393 16.809,6.393 4.291,0 8.375,-0.991 12.252,-2.979 C -8.724,8.876 -4.522,5.256 0,0"
           style="fill:#1a1a1a;fill-opacity:1;fill-rule:nonzero;stroke:none"
           id="path42" /></g><g
         id="g44"
         transform="translate(685.92,1029.1123)"><path
           d="m 0,0 c -7.952,0 -14.634,-2.763 -20.052,-8.292 -5.418,-5.529 -8.127,-12.557 -8.127,-21.084 0,-9.499 3.411,-17.016 10.233,-22.542 5.3,-4.321 11.379,-6.484 18.238,-6.484 7.755,0 14.361,2.803 19.82,8.409 5.456,5.608 8.184,12.519 8.184,20.735 0,8.177 -2.747,15.097 -8.244,20.763 C 14.558,-2.833 7.873,0 0,0 m 0.175,16.002 c 12.157,0 22.608,-4.398 31.354,-13.198 8.746,-8.8 13.122,-19.528 13.122,-32.18 0,-12.538 -4.316,-23.148 -12.947,-31.827 -8.629,-8.687 -19.1,-13.025 -31.412,-13.025 -12.896,0 -23.608,4.457 -32.142,13.374 -8.533,8.915 -12.798,19.505 -12.798,31.771 0,8.215 1.988,15.767 5.96,22.658 3.974,6.892 9.439,12.354 16.394,16.384 6.952,4.03 14.443,6.043 22.469,6.043"
           style="fill:#1a1a1a;fill-opacity:1;fill-rule:nonzero;stroke:none"
           id="path46" /></g><g
         id="g48"
         transform="translate(824.9489,1027.8579)"><path
           d="m 0,0 -11.436,-10.906 c -7.781,8.226 -16.533,12.338 -26.26,12.338 -8.207,0 -15.123,-2.807 -20.744,-8.419 -5.622,-5.611 -8.432,-12.532 -8.432,-20.753 0,-5.729 1.245,-10.817 3.734,-15.26 2.49,-4.443 6.012,-7.93 10.563,-10.464 4.551,-2.535 9.61,-3.798 15.171,-3.798 4.744,0 9.082,0.886 13.011,2.658 3.932,1.771 8.247,4.998 12.957,9.677 l 11.086,-11.57 c -6.348,-6.196 -12.344,-10.49 -17.99,-12.884 -5.643,-2.395 -12.087,-3.592 -19.331,-3.592 -13.354,0 -24.285,4.233 -32.793,12.7 -8.508,8.47 -12.76,19.321 -12.76,32.561 0,8.565 1.937,16.177 5.811,22.834 3.875,6.66 9.423,12.011 16.644,16.063 7.222,4.049 14.999,6.072 23.333,6.072 7.085,0 13.91,-1.496 20.471,-4.487 C -10.407,9.775 -4.751,5.52 0,0"
           style="fill:#1a1a1a;fill-opacity:1;fill-rule:nonzero;stroke:none"
           id="path50" /></g><path
         d="m 838.09,1042.956 h 16.235 V 957.045 H 838.09 Z"
         style="fill:#1a1a1a;fill-opacity:1;fill-rule:nonzero;stroke:none"
         id="path52" /><g
         id="g54"
         transform="translate(907.3282,1020.1787)"><path
           d="M 0,0 -11.528,-29.493 H 11.458 Z M -8.397,22.777 H 8.19 L 41.231,-63.134 H 24.237 l -6.723,17.696 H -17.54 l -6.99,-17.696 h -16.996 z"
           style="fill:#1a1a1a;fill-opacity:1;fill-rule:nonzero;stroke:none"
           id="path56" /></g><g
         id="g58"
         transform="translate(995.8082,1020.1787)"><path
           d="M 0,0 -11.528,-29.493 H 11.458 Z M -8.396,22.777 H 8.19 L 41.231,-63.134 H 24.237 l -6.723,17.696 H -17.54 l -6.99,-17.696 h -16.996 z"
           style="fill:#1a1a1a;fill-opacity:1;fill-rule:nonzero;stroke:none"
           id="path60" /></g><g
         id="g62"
         transform="translate(1049.6852,1042.9556)"><path
           d="M 0,0 H 16.352 V -70.318 H 40.18 V -85.911 H 0 Z"
           style="fill:#1a1a1a;fill-opacity:1;fill-rule:nonzero;stroke:none"
           id="path64" /></g><g
         id="g66"
         transform="translate(1170.3737,1020.1787)"><path
           d="M 0,0 -11.528,-29.493 H 11.458 Z M -8.396,22.777 H 8.19 L 41.231,-63.134 H 24.238 l -6.723,17.696 H -17.54 l -6.989,-17.696 h -16.997 z"
           style="fill:#1a1a1a;fill-opacity:1;fill-rule:nonzero;stroke:none"
           id="path68" /></g><g
         id="g70"
         transform="translate(1224.3077,1042.9556)"><path
           d="M 0,0 H 15.686 L 52.445,-56.535 V 0 H 68.797 V -85.911 H 53.067 L 16.352,-29.554 V -85.911 H 0 Z"
           style="fill:#1a1a1a;fill-opacity:1;fill-rule:nonzero;stroke:none"
           id="path72" /></g><g
         id="g74"
         transform="translate(1304.2609,1042.9556)"><path
           d="M 0,0 H 47.481 V -16.12 H 31.831 V -85.911 H 15.244 V -16.12 H 0 Z"
           style="fill:#1a1a1a;fill-opacity:1;fill-rule:nonzero;stroke:none"
           id="path76" /></g><g
         id="g78"
         transform="translate(1356.442,1042.9556)"><path
           d="M 0,0 H 16.088 L 28.5,-54.839 43.838,0 H 57.437 L 73.005,-54.839 85.298,0 h 16.089 L 82.03,-85.911 H 66.345 L 50.517,-30.37 34.984,-85.911 H 19.449 Z"
           style="fill:#1a1a1a;fill-opacity:1;fill-rule:nonzero;stroke:none"
           id="path80" /></g><g
         id="g82"
         transform="translate(1510.9752,1029.1123)"><path
           d="m 0,0 c -7.952,0 -14.634,-2.763 -20.052,-8.292 -5.418,-5.529 -8.127,-12.557 -8.127,-21.084 0,-9.499 3.411,-17.016 10.233,-22.542 5.3,-4.321 11.378,-6.484 18.238,-6.484 7.755,0 14.361,2.803 19.82,8.409 5.456,5.608 8.184,12.519 8.184,20.735 0,8.177 -2.747,15.097 -8.244,20.763 C 14.558,-2.833 7.873,0 0,0 m 0.174,16.002 c 12.157,0 22.609,-4.398 31.355,-13.198 8.746,-8.8 13.122,-19.528 13.122,-32.18 0,-12.538 -4.316,-23.148 -12.947,-31.827 -8.629,-8.687 -19.1,-13.025 -31.412,-13.025 -12.897,0 -23.609,4.457 -32.142,13.374 -8.533,8.915 -12.798,19.505 -12.798,31.771 0,8.215 1.988,15.767 5.96,22.658 3.974,6.892 9.439,12.354 16.394,16.384 6.952,4.03 14.443,6.043 22.468,6.043"
           style="fill:#1a1a1a;fill-opacity:1;fill-rule:nonzero;stroke:none"
           id="path84" /></g><g
         id="g86"
         transform="translate(1611.4279,1029.1123)"><path
           d="m 0,0 c -7.952,0 -14.634,-2.763 -20.052,-8.292 -5.418,-5.529 -8.127,-12.557 -8.127,-21.084 0,-9.499 3.411,-17.016 10.233,-22.542 5.3,-4.321 11.379,-6.484 18.238,-6.484 7.755,0 14.361,2.803 19.82,8.409 5.456,5.608 8.184,12.519 8.184,20.735 0,8.177 -2.747,15.097 -8.244,20.763 C 14.558,-2.833 7.873,0 0,0 m 0.174,16.002 c 12.158,0 22.609,-4.398 31.355,-13.198 8.746,-8.8 13.122,-19.528 13.122,-32.18 0,-12.538 -4.316,-23.148 -12.947,-31.827 -8.629,-8.687 -19.1,-13.025 -31.412,-13.025 -12.897,0 -23.608,4.457 -32.142,13.374 -8.533,8.915 -12.798,19.505 -12.798,31.771 0,8.215 1.988,15.767 5.96,22.658 3.974,6.892 9.439,12.354 16.394,16.384 6.952,4.03 14.443,6.043 22.468,6.043"
           style="fill:#1a1a1a;fill-opacity:1;fill-rule:nonzero;stroke:none"
           id="path88" /></g><g
         id="g90"
         transform="translate(1688.9576,1009.375)"><path
           d="m 0,0 h 5.126 c 5.199,0 8.781,0.683 10.74,2.048 1.96,1.369 2.941,3.633 2.941,6.8 0,1.873 -0.486,3.503 -1.458,4.89 -0.968,1.388 -2.27,2.382 -3.899,2.989 -1.63,0.606 -4.618,0.908 -8.966,0.908 H 0 Z M -16.352,33.581 H 0.972 c 9.489,0 16.247,-0.849 20.274,-2.541 4.024,-1.693 7.263,-4.507 9.712,-8.441 2.451,-3.932 3.674,-8.584 3.674,-13.958 0,-5.646 -1.353,-10.366 -4.059,-14.161 -2.705,-3.798 -6.783,-6.668 -12.233,-8.616 L 38.693,-52.33 H 20.817 L 1.496,-15.945 H 0 V -52.33 h -16.352 z"
           style="fill:#1a1a1a;fill-opacity:1;fill-rule:nonzero;stroke:none"
           id="path92" /></g><g
         id="g94"
         transform="translate(1757.1705,1027.1846)"><path
           d="m 0,0 v -54.197 h 7.593 c 7.475,0 12.896,0.857 16.266,2.575 3.367,1.712 6.123,4.599 8.263,8.65 2.141,4.056 3.211,9.042 3.211,14.968 0,9.121 -2.55,16.196 -7.65,21.224 C 23.087,-2.261 15.71,0 5.548,0 Z M -16.235,15.771 H 3.137 c 12.487,0 21.767,-1.55 27.836,-4.643 6.065,-3.096 11.064,-8.13 14.996,-15.098 3.928,-6.97 5.894,-15.107 5.894,-24.412 0,-6.618 -1.098,-12.703 -3.297,-18.251 -2.2,-5.548 -5.233,-10.153 -9.104,-13.811 -3.871,-3.662 -8.064,-6.193 -12.576,-7.594 -4.513,-1.4 -12.328,-2.102 -23.456,-2.102 h -19.665 z"
           style="fill:#1a1a1a;fill-opacity:1;fill-rule:nonzero;stroke:none"
           id="path96" /></g></g></g></svg>
