<?xml version="1.0" encoding="utf-8"?>
<!-- Generator: Adobe Illustrator 25.4.0, SVG Export Plug-In . SVG Version: 6.00 Build 0)  -->
<svg version="1.1"
	 id="Layer_1" inkscape:version="1.0.2-2 (e86c870879, 2021-01-15)" sodipodi:docname="logo.svg" xmlns:cc="http://creativecommons.org/ns#" xmlns:dc="http://purl.org/dc/elements/1.1/" xmlns:inkscape="http://www.inkscape.org/namespaces/inkscape" xmlns:rdf="http://www.w3.org/1999/02/22-rdf-syntax-ns#" xmlns:sodipodi="http://sodipodi.sourceforge.net/DTD/sodipodi-0.dtd" xmlns:svg="http://www.w3.org/2000/svg"
	 xmlns="http://www.w3.org/2000/svg" xmlns:xlink="http://www.w3.org/1999/xlink" x="0px" y="0px" viewBox="0 0 1133.9 1133.9"
	 style="enable-background:new 0 0 1133.9 1133.9;" xml:space="preserve">
<style type="text/css">
	.st0{fill:#FFE0D2;}
	.st1{fill:#2133EB;}
</style>
<sodipodi:namedview  bordercolor="#666666" borderopacity="1" gridtolerance="10" guidetolerance="10" id="namedview869" inkscape:current-layer="Layer_1" inkscape:cx="1044.019" inkscape:cy="515.61748" inkscape:pageopacity="0" inkscape:pageshadow="2" inkscape:window-height="991" inkscape:window-maximized="1" inkscape:window-width="1920" inkscape:window-x="-9" inkscape:window-y="-9" inkscape:zoom="0.51137491" objecttolerance="10" pagecolor="#ffffff" showgrid="false">
	</sodipodi:namedview>
<rect class="st0" width="1133.9" height="1133.9"/>
<g id="g912" transform="matrix(0.94365239,0,0,0.94365239,42.731372,58.694217)">
	<g id="g916" transform="matrix(1.1870895,0,0,1.1870895,-117.35732,-97.383488)">
		<path id="path858" class="st1" d="M398,609.5c-2.5-41.6,6.5-76.8,27.1-105.7c20.5-28.8,62-60.8,124.4-96.1
			c43.1-23.4,70.4-42.3,82-56.6c11.6-14.3,16.8-31,15.7-50c-1.4-23.6-11-42.6-28.7-57c-17.7-14.3-39.5-20.7-65.2-19.2
			c-29,1.7-72.2,25.2-72.2,25.2s-106.3,58.8-104.4,92l0,0c-0.1-2.1,8.7-120.2,40.4-155.6s75.6-54.7,131.7-58
			c57.5-3.4,104.2,10.3,140.2,41.3c36,31,55.6,74.1,58.9,129.5c2.4,40.6-5.7,74.4-24.3,101.5c-18.6,27.1-56.8,56.9-114.6,89.4
			c-2.7,1.6-6.8,3.9-12.3,7.1 M506.9,878.1c-1.1-19,4.8-35.8,17.7-50.2c12.9-14.4,28.8-22.1,47.5-23.3c19.7-1.2,36.6,4.5,50.7,17.2
			c14,12.6,21.6,28.6,22.8,48c1.1,19-4.6,35.8-17.2,50.1c-12.6,14.4-28.6,22.1-48,23.3c-19,1.1-35.8-4.7-50.1-17.5
			C515.8,913,508,897.1,506.9,878.1z"/>
		<path id="path862" class="st1" d="M715.4,411.7c-20.5,28.8-68.9,58.1-131.3,93.4c-43.1,23.4-70.4,42.3-82,56.6
			c-11.6,14.3-16.8,31-15.7,50c1.4,23.6,11,42.6,28.7,57c17.7,14.3,39.5,20.7,65.2,19.2c29-1.7,72.2-25.2,72.2-25.2
			s30.6-17.5,51.7-35.2c21.5-18,35.6-44.3,44.2-98.6c9.5-60.1-26.5-176.8-29.6-220.9c-1.6-21.7,21.5-53.2,21.3-57
			c0.1,1.2,61.7,186.9,56.2,296.3c-4.4,87.6-65.8,163.2-79.9,178.9c-31.7,35.3-75.6,54.7-131.7,58c-57.5,3.4-104.2-10.3-140.2-41.3
			c-36-31-55.6-74.1-58.9-129.5c-2.4-40.6,5.7-74.4,24.3-101.5c18.6-27.1,56.8-56.9,114.6-89.4c2.7-1.6,6.8-3.9,12.3-7.1"/>
	</g>
</g>
</svg>
